<?xml version="1.0" encoding="UTF-8" standalone="no"?><!DOCTYPE svg PUBLIC "-//W3C//DTD SVG 1.1//EN" "http://www.w3.org/Graphics/SVG/1.1/DTD/svg11.dtd"><svg width="100%" height="100%" viewBox="0 0 663 314" version="1.1" xmlns="http://www.w3.org/2000/svg" xmlns:xlink="http://www.w3.org/1999/xlink" xml:space="preserve" xmlns:serif="http://www.serif.com/" style="fill-rule:evenodd;clip-rule:evenodd;stroke-linejoin:round;stroke-miterlimit:2;"><g id="Black-and-White-v1" serif:id="Black and White v1"><g id="UJG-wordmark" serif:id="UJG wordmark"><path d="M327.584,253.353c-0.599,11.522 -2.668,18.267 -7.455,26.428c-4.787,8.161 -10.187,14.058 -17.666,19.338c-7.48,5.281 -13.714,9.139 -22.988,11.539c-9.275,2.4 -27.085,2.76 -36.565,0.888c-6.542,-1.292 -16.659,-2.474 -28.536,-6.852c-14.865,-5.48 -28.435,-13.506 -28.435,-13.506c0,-0 35.319,3.631 54.221,2.71c21.571,-1.052 34.368,-6.905 45.281,-11.248c3.298,-1.313 22.63,-11.87 25.771,-14.95c2.691,-2.638 13.978,-10.826 16.372,-14.347Z" style="fill:#0a0a0a;"/><path d="M225.752,0.345l56.437,0c0,28.875 -0.146,57.605 -0.437,86.188c-0.292,28.583 -0.146,57.312 0.437,86.187c0,19.25 -3.718,37.407 -11.156,54.469c-7.437,17.063 -17.5,31.938 -30.187,44.625c-12.688,12.688 -27.563,22.75 -44.625,30.188c-17.063,7.437 -35.219,11.156 -54.469,11.156c-14,-0 -27.198,-1.896 -39.594,-5.688c-12.396,-3.791 -24.135,-9.041 -35.219,-15.75c14,3.209 28.292,4.448 42.875,3.719c14.584,-0.729 28.584,-3.573 42,-8.531c10.5,-4.083 20.271,-9.479 29.313,-16.188c9.041,-6.708 16.916,-14.802 23.625,-24.281c6.708,-9.479 11.885,-20.344 15.531,-32.594c3.646,-12.25 5.469,-26.104 5.469,-41.562l-0,-171.938Z" style="fill:#0a0a0a;"/><path d="M47.689,277.283c-14.291,-13.125 -25.666,-28.583 -34.125,-46.375c-8.458,-17.792 -12.687,-37.188 -12.687,-58.188c0.583,-28.875 0.729,-57.604 0.437,-86.187c-0.291,-28.583 -0.437,-57.313 -0.437,-86.188l56.437,0l0,171.938c0,11.375 2.115,22.24 6.344,32.594c4.229,10.354 10.208,19.323 17.938,26.906c7.729,7.583 16.697,13.635 26.906,18.156c10.208,4.521 21.291,6.781 33.25,6.781c13.125,0 25.375,-2.843 36.75,-8.531c11.375,-5.687 20.854,-13.198 28.437,-22.531c-6.708,15.167 -16.187,27.417 -28.437,36.75c-12.25,9.333 -25.74,16.042 -40.469,20.125c-14.729,4.083 -29.969,5.687 -45.719,4.812c-15.75,-0.875 -30.625,-4.229 -44.625,-10.062Z" style="fill:#e8e6e1;"/><path d="M394,229.257c0,11.602 -2.244,22.535 -6.731,32.798c-4.488,10.264 -10.546,19.188 -18.175,26.774c-7.629,7.586 -16.604,13.611 -26.926,18.073c-10.321,4.462 -21.316,6.693 -32.983,6.693l-17.053,0c13.463,-5.949 24.158,-14.279 32.086,-24.989c7.928,-10.71 11.892,-24.394 11.892,-41.054l0,-246.769l57.89,-0l0,228.474Z" style="fill:#0a0a0a;"/><path d="M587.754,99.854c-9.397,-13.548 -21.73,-24.344 -37,-32.389c-15.27,-8.044 -32.155,-12.066 -50.655,-12.066c-14.683,-0 -28.411,2.681 -41.185,8.044c-12.774,5.363 -23.932,12.56 -33.476,21.593c-9.544,9.032 -17.105,19.757 -22.685,32.176c-5.579,12.42 -8.369,25.544 -8.369,39.375c0,16.935 2.863,33.8 8.589,50.594c5.727,16.794 13.876,32.247 24.447,46.36c10.571,14.112 23.125,26.461 37.661,37.046c14.536,10.584 30.466,17.993 47.792,22.227c-23.786,1.694 -46.251,-1.2 -67.393,-8.679c-21.143,-7.48 -39.717,-18.276 -55.721,-32.389c-16.004,-14.113 -28.704,-31.048 -38.101,-50.805c-9.397,-19.758 -14.096,-41.068 -14.096,-63.931c0,-24.556 5.36,-47.277 16.078,-68.164c10.718,-20.887 25.327,-38.528 43.827,-52.922c9.985,-4.517 19.675,-7.692 29.072,-9.527c9.397,-1.834 18.5,-2.752 27.31,-2.752c12.627,0 25.033,1.765 37.22,5.293c12.187,3.528 23.639,8.256 34.357,14.183c10.719,5.927 20.703,12.701 29.953,20.322c9.25,7.621 17.252,15.524 24.006,23.709c4.992,6.775 7.782,11.008 8.369,12.702Z" style="fill:#0a0a0a;"/><path d="M500.099,0.783c24.079,-0 46.47,4.587 67.173,13.76c20.702,9.173 38.541,21.663 53.518,37.469l-27.75,40.644c-2.35,-4.233 -5.58,-8.679 -9.691,-13.336c-4.111,-4.657 -8.663,-9.314 -13.655,-13.972c-4.992,-4.657 -10.351,-9.173 -16.077,-13.548c-5.726,-4.375 -11.526,-8.256 -17.399,-11.643c-16.445,-9.879 -34.064,-17.005 -52.857,-21.38c-18.794,-4.375 -38.616,-4.305 -59.465,0.211c23.492,-12.137 48.893,-18.205 76.203,-18.205Z" style="fill:#e8e6e1;"/><path d="M417.289,220.517c9.397,11.29 20.335,20.111 32.816,26.461c12.48,6.351 25.474,10.162 38.982,11.432c13.508,1.27 26.869,0.141 40.083,-3.387c13.215,-3.529 25.401,-9.526 36.56,-17.994c9.397,-7.056 17.325,-15.453 23.786,-25.191c6.46,-9.738 11.012,-20.111 13.655,-31.119l-110.12,0l0,-46.995l169.584,0l0,23.286c0,19.758 -3.597,38.739 -10.792,56.945c-7.194,18.205 -17.839,34.505 -31.934,48.9c-10.865,11.29 -23.199,20.887 -37,28.79c-13.802,7.903 -28.631,13.689 -44.489,17.359c-18.793,-1.412 -35.605,-5.928 -50.434,-13.549c-14.83,-7.62 -27.824,-17.217 -38.983,-28.789c-6.754,-6.774 -12.7,-14.113 -17.839,-22.016c-5.139,-7.903 -9.764,-15.947 -13.875,-24.133Z" style="fill:#e8e6e1;"/></g></g></svg>